<?xml version="1.0" encoding="UTF-8"?>
<svg xmlns="http://www.w3.org/2000/svg" viewBox="0 0 64 64" width="512" height="512"><g id="Layer_24" data-name="Layer 24"><path d="M51,22a3,3,0,0,0,3-3V5a3,3,0,0,0-3-3H13a3,3,0,0,0-3,3V19a3,3,0,0,0,3,3,3,3,0,0,0-3,3V59a3,3,0,0,0,3,3H51a3,3,0,0,0,3-3V25A3,3,0,0,0,51,22Z" style="fill:#947eb5"/><path d="M51,2H13a2.962,2.962,0,0,0-1,.184V21.816A2.962,2.962,0,0,0,13,22a2.962,2.962,0,0,0-1,.184V57a3,3,0,0,0,3,3H53a2.983,2.983,0,0,0,.86-.14A2.983,2.983,0,0,0,54,59V25a3,3,0,0,0-3-3,3,3,0,0,0,3-3V5A3,3,0,0,0,51,2Z" style="fill:#b299c3"/><rect x="14" y="14" width="36" height="4" style="fill:#e4e5e7"/><circle cx="20" cy="8" r="2" style="fill:#e3d478"/><circle cx="28" cy="8" r="2" style="fill:#e3d478"/><circle cx="36" cy="8" r="2" style="fill:#e3d478"/><circle cx="44" cy="8" r="2" style="fill:#e3d478"/><rect x="14" y="26" width="36" height="32" style="fill:#aab1b7"/><path d="M50,25H14a1,1,0,0,0-1,1V58a1,1,0,0,0,1,1H50a1,1,0,0,0,1-1V26A1,1,0,0,0,50,25ZM32,56.175l-2.733-2.45L32,51.274l2.733,2.45ZM24.652,42l2.909-2.609L30.5,42l-2.934,2.608Zm1.4,3.946-2.745,2.439-2.891-2.592,2.733-2.45ZM32,43.337l2.941,2.615L32,48.588l-2.941-2.637ZM33.505,42l2.934-2.608L39.349,42l-2.91,2.609ZM32,40.663l-2.941-2.615L32,35.412l2.941,2.637Zm1.5-6.594,3-2.692,2.96,2.654-3.015,2.68ZM32,32.726l-3-2.692,3-2.691,3,2.691Zm-1.5,1.343-2.947,2.642-3.015-2.68,2.96-2.654Zm-7.467-1.375-2.744-2.439,2.978-2.671L26,30.034Zm-1.5,1.343-2.883,2.585-2.733-2.45L18.793,31.6Zm1.505,1.337,3.015,2.68-2.9,2.6-3-2.692ZM21.656,42l-2.733,2.45-3-2.691,2.733-2.451ZM15,43.619l2.425,2.174L15,47.967Zm3.923,3.517,2.885,2.587L18.793,52.4l-2.872-2.575Zm4.383,3.93,2.965,2.659-3,2.691-2.978-2.671Zm1.5-1.338,2.745-2.439L30.5,49.931l-2.733,2.451Zm8.688.2,2.948-2.642,2.744,2.439-2.959,2.653Zm7.2,1.135,3.015,2.679-2.978,2.671-3-2.692Zm1.5-1.343,2.885-2.587,3,2.692L45.207,52.4Zm-1.5-1.338-2.744-2.439,2.9-2.6,2.733,2.45ZM42.344,42l3-2.691,2.732,2.45-3,2.691Zm-1.5-1.343-2.9-2.6,3.015-2.68,2.891,2.592Zm1.617-6.62L45.207,31.6l2.872,2.575-2.732,2.45Zm-1.5-1.343L38,30.034l2.733-2.45,2.978,2.671ZM43.075,27H47.37l-2.157,1.917ZM36.5,28.691,34.613,27h3.774Zm-9,0L25.614,27h3.773Zm-8.714.226L16.63,27h4.3Zm-1.5,1.343L15,32.312V28.226Zm-.132,7.705L15,39.9V36.033Zm.132,15.775L15,55.774V51.688Zm1.5,1.343L20.925,57h-4.3Zm8.983-.015L29.925,57H25.614Zm8.462,0L38.387,57H34.075Zm8.982.016L47.37,57H43.075Zm1.5-1.343L49,51.688v4.086Zm-.136-7.947L49,43.619v4.348Zm.27-7.827L49,36.033V39.9Zm-.134-7.706L49,28.226v4.086Z" style="fill:#e4e5e7"/><path d="M53.221,21H10.779A2.978,2.978,0,0,0,13,22a2.978,2.978,0,0,0-2.221,1H53.221A2.978,2.978,0,0,0,51,22,2.978,2.978,0,0,0,53.221,21Z" style="fill:#947eb5"/><path d="M9,25V59a4,4,0,0,0,4,4H51a4,4,0,0,0,4-4V25a3.974,3.974,0,0,0-1.382-3A3.974,3.974,0,0,0,55,19V5a4,4,0,0,0-4-4H13A4,4,0,0,0,9,5V19a3.974,3.974,0,0,0,1.382,3A3.974,3.974,0,0,0,9,25Zm2-6V5a2,2,0,0,1,2-2H51a2,2,0,0,1,2,2V19a2,2,0,0,1-2,2H13A2,2,0,0,1,11,19Zm40,4a2,2,0,0,1,2,2V59a2,2,0,0,1-2,2H13a2,2,0,0,1-2-2V25a2,2,0,0,1,2-2Z"/><path d="M51,14a1,1,0,0,0-1-1H14a1,1,0,0,0-1,1v4a1,1,0,0,0,1,1H50a1,1,0,0,0,1-1Zm-2,3H15V15H49Z"/><path d="M20,11a3,3,0,1,0-3-3A3,3,0,0,0,20,11Zm0-4a1,1,0,1,1-1,1A1,1,0,0,1,20,7Z"/><path d="M28,11a3,3,0,1,0-3-3A3,3,0,0,0,28,11Zm0-4a1,1,0,1,1-1,1A1,1,0,0,1,28,7Z"/><path d="M36,11a3,3,0,1,0-3-3A3,3,0,0,0,36,11Zm0-4a1,1,0,1,1-1,1A1,1,0,0,1,36,7Z"/><path d="M44,11a3,3,0,1,0-3-3A3,3,0,0,0,44,11Zm0-4a1,1,0,1,1-1,1A1,1,0,0,1,44,7Z"/><path d="M14,59H50a1,1,0,0,0,1-1V26a1,1,0,0,0-1-1H14a1,1,0,0,0-1,1V58A1,1,0,0,0,14,59Zm18-2.825-2.733-2.45L32,51.274l2.733,2.45ZM33.505,42l2.934-2.608L39.349,42l-2.91,2.609Zm1.436,3.952L32,48.588l-2.941-2.637L32,43.337ZM32,40.663l-2.941-2.615L32,35.412l2.941,2.637ZM30.5,42l-2.934,2.608L24.652,42l2.909-2.609Zm-4.438,3.946-2.745,2.439-2.891-2.592,2.733-2.45Zm1.5,1.343L30.5,49.931l-2.733,2.451L24.81,49.728ZM33.5,49.931l2.948-2.642,2.744,2.439-2.959,2.653Zm7.2,1.135,3.015,2.679-2.978,2.671-3-2.692Zm1.5-1.343,2.885-2.587,3,2.692L45.207,52.4Zm-1.5-1.338-2.744-2.439,2.9-2.6,2.733,2.45ZM42.344,42l3-2.691,2.732,2.45-3,2.691Zm-1.5-1.343-2.9-2.6,3.015-2.68,2.891,2.592Zm1.617-6.62L45.207,31.6l2.872,2.575-2.732,2.45Zm-1.5-1.343L38,30.034l2.733-2.45,2.978,2.671ZM39.46,34.031l-3.015,2.68L33.5,34.069l3-2.692ZM32,32.726l-3-2.692,3-2.691,3,2.691Zm-1.5,1.343-2.947,2.642-3.015-2.68,2.96-2.654Zm-7.467-1.375-2.744-2.439,2.978-2.671L26,30.034Zm-1.5,1.343-2.883,2.585-2.733-2.45L18.793,31.6Zm1.505,1.337,3.015,2.68-2.9,2.6-3-2.692ZM21.656,42l-2.733,2.45-3-2.691,2.733-2.451ZM15,43.619l2.425,2.174L15,47.967Zm3.923,3.517,2.885,2.587L18.793,52.4l-2.872-2.575Zm4.383,3.93,2.965,2.659-3,2.691-2.978-2.671ZM20.925,57h-4.3l2.156-1.917Zm6.844-1.932L29.925,57H25.614Zm8.462,0L38.387,57H34.075Zm8.982.016L47.37,57H43.075Zm1.5-1.343L49,51.688v4.086Zm-.136-7.947L49,43.619v4.348Zm.27-7.827L49,36.033V39.9Zm-.134-7.706L49,28.226v4.086Zm-1.5-1.343L43.075,27H47.37ZM36.5,28.691,34.613,27h3.774Zm-9,0L25.614,27h3.773Zm-8.714.226L16.63,27h4.3Zm-1.5,1.343L15,32.312V28.226Zm-.132,7.705L15,39.9V36.033Zm.132,15.775L15,55.774V51.688Z"/></g></svg>
