<svg id="Capa_1" enable-background="new 0 0 512.001 512.001" height="512" viewBox="0 0 512.001 512.001" width="512" xmlns="http://www.w3.org/2000/svg"><g id="XMLID_227_"><path id="XMLID_710_" d="m459.496 314.247 16.904 95.862-46.323-32.36-32.462 46.252-16.903-95.862z" fill="#b278d3"/><path id="XMLID_711_" d="m59.794 314.247-16.903 95.862 46.323-32.36 32.461 46.252 16.903-95.862z" fill="#99ebfa"/><path id="XMLID_709_" d="m299.645 326.66v97.341l-40-39.912-40 39.912v-97.341z" fill="#ff9171"/><path id="XMLID_680_" d="m476.807 28.888 25.194 94.024-48.968-28.2-28.307 48.905-25.193-94.024z" fill="#ffcd69"/><path id="XMLID_679_" d="m35.194 28.888-25.193 94.024 48.967-28.2 28.307 48.905 25.193-94.024z" fill="#d5ea79"/><path id="XMLID_678_" d="m232.001 50.001v97.341l-40-39.912-40 39.912v-97.341z" fill="#33d6f5"/><path id="XMLID_677_" d="m360.001 50.001v97.341l-40-39.912-40 39.912v-97.341z" fill="#ff7d97"/><g id="XMLID_1421_"><path id="XMLID_1426_" d="m360.003 157.343c1.29 0 2.591-.25 3.83-.764 3.734-1.549 6.168-5.194 6.168-9.237v-87.341h10.799c3.7 0 7.397-.109 11.088-.305l23.18 86.509c1.046 3.905 4.341 6.795 8.349 7.325.44.058.878.087 1.314.087 3.534 0 6.849-1.876 8.652-4.991l23.308-40.269 40.321 23.22c3.503 2.017 7.877 1.728 11.082-.736 3.206-2.463 4.614-6.613 3.567-10.519l-23.871-89.085c6.959-4.012 13.699-8.412 20.164-13.201 4.438-3.288 5.371-9.55 2.083-13.988-3.288-4.438-9.55-5.371-13.988-2.083-33.113 24.528-74.042 38.036-115.249 38.036h-249.598c-41.207 0-82.136-13.508-115.249-38.036-4.437-3.286-10.701-2.354-13.988 2.084s-2.354 10.7 2.083 13.988c6.465 4.789 13.205 9.189 20.164 13.201l-23.871 89.085c-1.046 3.905.361 8.056 3.567 10.519 3.206 2.462 7.579 2.753 11.082.736l40.321-23.22 23.308 40.269c1.803 3.116 5.118 4.991 8.652 4.991.435 0 .875-.029 1.313-.087 4.008-.53 7.302-3.42 8.349-7.325l23.18-86.509c3.691.196 7.388.305 11.088.305h10.799v87.341c0 4.042 2.434 7.688 6.168 9.237 3.735 1.548 8.033.697 10.895-2.158l32.937-32.865 32.936 32.865c1.913 1.908 4.467 2.921 7.066 2.921 1.29 0 2.591-.25 3.83-.764 3.734-1.549 6.168-5.194 6.168-9.237v-87.341h28v87.341c0 4.042 2.434 7.688 6.168 9.237 3.736 1.548 8.034.697 10.896-2.158l32.936-32.865 32.936 32.865c1.914 1.908 4.468 2.922 7.067 2.922zm126.1-55.126-28.079-16.17c-4.778-2.752-10.883-1.116-13.645 3.656l-16.231 28.042-16.101-60.09c19.858-2.972 39.278-8.737 57.546-17.058zm-402.249 15.528-16.231-28.042c-2.762-4.773-8.868-6.409-13.645-3.656l-28.079 16.17 16.511-61.619c18.268 8.321 37.688 14.086 57.546 17.058zm138.147 5.493-22.937-22.886c-3.904-3.896-10.223-3.896-14.127 0l-22.936 22.886v-63.237h60zm105.063-22.887c-3.904-3.896-10.223-3.896-14.127 0l-22.936 22.886v-63.236h60v63.236z"/><path id="XMLID_1436_" d="m496.048 278.625c-33.112 24.528-74.042 38.036-115.249 38.036h-36.154c-5.523 0-10 4.477-10 10s4.477 10 10 10h27.415l15.706 89.077c.702 3.982 3.732 7.148 7.678 8.025.723.161 1.45.239 2.171.239 3.213 0 6.287-1.553 8.184-4.256l26.73-38.084 38.143 26.645c3.313 2.315 7.696 2.407 11.104.233 3.409-2.174 5.173-6.187 4.471-10.167l-16.11-91.365c13.316-6.111 26.017-13.573 37.815-22.312 4.438-3.288 5.371-9.55 2.083-13.988-3.287-4.438-9.549-5.371-13.987-2.083zm-33.682 109.482-26.562-18.556c-4.519-3.158-10.744-2.061-13.912 2.453l-18.614 26.521-10.966-62.192c20.059-1.105 39.92-5.077 58.865-11.685z"/><path id="XMLID_1439_" d="m299.645 361.661c-5.523 0-10 4.477-10 10v28.236l-22.936-22.886c-3.904-3.896-10.223-3.896-14.127 0l-22.937 22.886v-63.236h25.001c5.523 0 10-4.477 10-10s-4.477-10-10-10h-123.444c-41.207 0-82.136-13.508-115.249-38.036-4.438-3.287-10.701-2.355-13.988 2.083s-2.354 10.7 2.083 13.988c13.781 10.208 28.791 18.684 44.58 25.285l-15.586 88.392c-.702 3.981 1.062 7.993 4.471 10.167 3.408 2.173 7.79 2.081 11.104-.233l38.143-26.645 26.73 38.084c1.897 2.703 4.971 4.256 8.184 4.256.72 0 1.448-.078 2.171-.239 3.946-.877 6.976-4.044 7.678-8.025l15.706-89.077h62.415v87.341c0 4.043 2.434 7.688 6.168 9.237 3.734 1.548 8.033.697 10.895-2.158l32.937-32.865 32.937 32.865c1.913 1.908 4.467 2.921 7.066 2.921 1.289 0 2.591-.25 3.83-.764 3.734-1.549 6.168-5.194 6.168-9.237v-52.341c0-5.522-4.477-9.999-10-9.999zm-183.632 36.865-18.614-26.521c-3.168-4.514-9.392-5.611-13.912-2.453l-26.562 18.556 10.788-61.184c19.149 5.968 39.127 9.282 59.216 9.693z"/><path id="XMLID_1440_" d="m145.667 208.001c0-5.523-4.477-10-10-10-7.72 0-14-6.28-14-14 0-5.523-4.477-10-10-10s-10 4.477-10 10c0 18.748 15.252 34 34 34 5.523 0 10-4.477 10-10z"/><path id="XMLID_1441_" d="m394.287 204.243c-.553 3.704-2.512 6.967-5.514 9.19-3.003 2.222-6.697 3.142-10.4 2.589-5.455-.819-10.551 2.951-11.367 8.414-.816 5.462 2.951 10.551 8.414 11.367 1.704.255 3.408.38 5.099.38 7.229 0 14.24-2.298 20.153-6.674 7.297-5.401 12.054-13.325 13.396-22.312.816-5.462-2.951-10.551-8.414-11.367-5.455-.816-10.551 2.951-11.367 8.413z"/><path id="XMLID_1442_" d="m405.653 451.192c-5.455-.818-10.551 2.951-11.367 8.414-.553 3.704-2.511 6.967-5.514 9.189s-6.697 3.142-10.4 2.589c-5.457-.818-10.551 2.951-11.367 8.414-.816 5.462 2.951 10.551 8.414 11.367 1.695.253 3.377.376 5.042.376 16.545 0 31.09-12.135 33.605-28.982.817-5.462-2.95-10.551-8.413-11.367z"/><path id="XMLID_1443_" d="m133.629 491.844c-3.706.552-7.398-.367-10.4-2.589-3.003-2.222-4.961-5.486-5.514-9.189-.816-5.462-5.909-9.235-11.367-8.414-5.462.815-9.229 5.905-8.414 11.367 2.515 16.848 17.059 28.981 33.606 28.981 1.664 0 3.349-.122 5.042-.376 5.462-.815 9.23-5.905 8.414-11.367s-5.907-9.231-11.367-8.413z"/><path id="XMLID_1444_" d="m249.056 287.827c1.953 1.952 4.512 2.929 7.071 2.929s5.119-.977 7.071-2.929c6.425-6.426 9.964-14.964 9.964-24.042s-3.539-17.616-9.964-24.042c-3.905-3.905-10.237-3.905-14.142.001-3.905 3.905-3.905 10.237.001 14.142 2.648 2.648 4.106 6.163 4.106 9.899s-1.458 7.251-4.106 9.899c-3.906 3.905-3.906 10.237-.001 14.143z"/><path id="XMLID_1445_" d="m299.64 316.661c-2.63 0-5.21 1.07-7.07 2.93s-2.92 4.43-2.92 7.07c0 2.63 1.06 5.21 2.92 7.07 1.87 1.86 4.44 2.93 7.07 2.93 2.64 0 5.21-1.07 7.07-2.93 1.87-1.86 2.94-4.44 2.94-7.07s-1.07-5.21-2.94-7.07c-1.86-1.86-4.43-2.93-7.07-2.93z"/></g></g></svg>