<svg id="filled_outline" height="512" viewBox="0 0 512 512" width="512" xmlns="http://www.w3.org/2000/svg" data-name="filled outline"><path d="m326.501 67.803h32v32h-32z" fill="#3cde8d" transform="matrix(.312 -.95 .95 .312 155.912 382.992)"/><path d="m240.73893 196.86672 21.36655 17.93a37.32646 37.32646 0 0 0 12.33523 6.86611 37.32649 37.32649 0 0 0 17.08856 1.47048l8.98042-1.3204 9.9951-30.399-6.44457-6.3921a37.3264 37.3264 0 0 0 -14.62685-8.95747 37.32623 37.32623 0 0 0 -14.003-1.79383l-27.83785 1.75174a11.81627 11.81627 0 0 0 -10.483 8.10216 11.81626 11.81626 0 0 0 3.62941 12.74231z" fill="#ffc431"/><path d="m304.707 195.611h32v32h-32z" fill="#3cde8d" transform="matrix(.312 -.95 .95 .312 19.511 450.176)"/><path d="m344 144h32v32h-32z" fill="#3cde8d"/><path d="m440.57219 170.97112-25.89792 10.35917a37.32645 37.32645 0 0 1 -13.86268 2.66971 37.32654 37.32654 0 0 1 -16.69288-3.94065l-8.11871-4.05935v-32l8.11869-4.05935a37.32654 37.32654 0 0 1 16.69288-3.94065 37.32645 37.32645 0 0 1 13.86268 2.66971l25.89792 10.35917a11.81624 11.81624 0 0 1 7.42783 10.97112 11.81624 11.81624 0 0 1 -7.42781 10.97112z" fill="#ffc431"/><path d="m389.29076 328.67673-13.60936-24.34749a37.32631 37.32631 0 0 0 -9.09417-10.798 37.32646 37.32646 0 0 0 -15.4534-7.44136l-8.8642-1.95377-20.13608 24.87043 3.7555 8.26363a37.32651 37.32651 0 0 0 10.49406 13.56672 37.32637 37.32637 0 0 0 12.454 6.64822l26.64642 8.24518a11.81625 11.81625 0 0 0 12.6765-3.8528 11.81625 11.81625 0 0 0 1.13073-13.20076z" fill="#ef5e3b"/><g fill="#3cde8d"><path d="m303.766 270.503h32v32h-32z" transform="matrix(.629 -.777 .777 .629 -104.118 354.743)"/><path d="m227.674 290.623h32v32h-32z" transform="matrix(.894 -.447 .447 .894 -111.391 141.326)"/><path d="m176 336h32v32h-32z"/></g><path d="m60.06861 257.34921.58145 27.88686a37.32624 37.32624 0 0 0 2.9581 13.804 37.32652 37.32652 0 0 0 10.14884 13.82693l6.90845 5.88768 29.45706-12.50128.56507-9.05936a37.32626 37.32626 0 0 0 -2.89382-16.90583 37.32639 37.32639 0 0 0 -7.87322-11.7181l-19.65337-19.79296a11.81626 11.81626 0 0 0 -13.00106-2.55151 11.81626 11.81626 0 0 0 -7.1975 11.12357z" fill="#ef5e3b"/><path d="m85.645 311.233h32v32h-32z" fill="#3cde8d" transform="matrix(.921 -.391 .391 .921 -119.761 65.713)"/><path d="m126.82331 441.88948-12.52566-24.92233a37.32639 37.32639 0 0 0 -8.6106-11.18745 37.32642 37.32642 0 0 0 -15.11126-8.11363l-8.76973-2.34164-21.21013 23.961 3.38852 8.42076a37.32645 37.32645 0 0 0 9.8874 14.015 37.32627 37.32627 0 0 0 12.14965 7.18939l26.25812 9.40882a11.81627 11.81627 0 0 0 12.83365-3.2917 11.81626 11.81626 0 0 0 1.71004-13.13822z" fill="#ffc431"/><path d="m43.22 380.7h32v32h-32z" fill="#3cde8d" transform="matrix(.663 -.749 .749 .663 -277.073 178.104)"/><path d="m262.53294 69.05869 21.36655 17.93a37.32646 37.32646 0 0 0 12.33523 6.86611 37.32649 37.32649 0 0 0 17.08856 1.47048l8.98042-1.3204 9.9951-30.399-6.44457-6.3921a37.3264 37.3264 0 0 0 -14.62685-8.95747 37.32623 37.32623 0 0 0 -14.003-1.79383l-27.83785 1.75174a11.81626 11.81626 0 0 0 -10.483 8.10216 11.81625 11.81625 0 0 0 3.62941 12.74231z" fill="#e0edff"/><path d="m197.83219 239.46062 2.31487 27.79669a37.32632 37.32632 0 0 0 3.811 13.5933 37.32638 37.32638 0 0 0 10.98919 13.16885l7.26129 5.44658 28.62246-14.30927.0005-9.077a37.32658 37.32658 0 0 0 -3.93975-16.6931 37.32636 37.32636 0 0 0 -8.58683-11.2057l-20.84642-18.53218a11.81625 11.81625 0 0 0 -13.13458-1.73791 11.81624 11.81624 0 0 0 -6.49173 11.54974z" fill="#548aff"/><path d="m181.02888 432.57219-10.35917-25.89792a37.32645 37.32645 0 0 1 -2.66971-13.86268 37.32654 37.32654 0 0 1 3.94065-16.69288l4.05935-8.11871h32l4.05935 8.11869a37.32654 37.32654 0 0 1 3.94065 16.69288 37.32645 37.32645 0 0 1 -2.66971 13.86268l-10.35917 25.89792a11.81624 11.81624 0 0 1 -10.97112 7.42783 11.81624 11.81624 0 0 1 -10.97112-7.42781z" fill="#e0edff"/><path d="m464 16a127.84784 127.84784 0 0 0 -100.88867 49.31494l-26.52-8.71924-5.103-5.06152a45.33 45.33 0 0 0 -34.76562-13.05566l-27.83887 1.751a19.81708 19.81708 0 0 0 -11.49317 34.958v-.001l21.36622 17.92969a45.4097 45.4097 0 0 0 35.73046 10.124l7.11231-1.04565 19.39209 6.376a127.64423 127.64423 0 0 0 -4.99175 35.42944v32q0 7.65783-.75146 15.12842l-20.45069-6.72412-5.10449-5.06348a45.33039 45.33039 0 0 0 -34.76563-13.05469l-27.83789 1.752a19.81681 19.81681 0 0 0 -11.49414 34.957h.001l21.36621 17.92968a45.40969 45.40969 0 0 0 35.73047 10.124l7.1123-1.04639 23.13477 7.60669a152.96334 152.96334 0 0 1 -54.562 64.75708l-9.54737-19.09643v-7.18873a45.33333 45.33333 0 0 0 -15.21093-33.87988l-20.84668-18.53125a19.81654 19.81654 0 0 0 -32.91406 16.4541v.001l2.31542 27.79492a45.32527 45.32527 0 0 0 17.97266 32.5l5.75122 4.31348 8.85376 17.71094a151.63452 151.63452 0 0 1 -40.75247 5.55566h-40a128.72825 128.72825 0 0 0 -15.55566.94727l-10.22022-24.08106.44776-7.1748a45.32038 45.32038 0 0 0 -13.07422-34.75782l-19.6543-19.79394a19.816 19.816 0 0 0 -33.873 14.37695l.582 27.88574a45.3297 45.3297 0 0 0 15.915 33.55371l5.47168 4.66333 8.53567 20.11162a128.103 128.103 0 0 0 -66.57471 112.269v40h16v-40a111.38357 111.38357 0 0 1 8.81128-43.54346l13.06763 11.56714 2.68359 6.6687a45.56889 45.56889 0 0 0 12.00684 17.01953 45.11452 45.11452 0 0 0 14.7539 8.7295l26.25781 9.40918a19.93581 19.93581 0 0 0 6.72754 1.17578 19.83394 19.83394 0 0 0 17.66309-28.72949l-12.52637-24.92383a45.32238 45.32238 0 0 0 -28.80566-23.43653l-6.94556-1.85452-16.926-14.98291a111.56556 111.56556 0 0 1 75.23191-29.09909h24v22.11157l-3.21484 6.43042a45.32072 45.32072 0 0 0 -1.543 37.10254l10.3594 25.89847a19.81532 19.81532 0 0 0 36.79688 0l10.35937-25.89746a45.32527 45.32527 0 0 0 -1.543-37.10449l-3.21481-6.42972v-25.18189a167.6535 167.6535 0 0 0 81.72461-41.39184l17.90771 14.499 2.97315 6.54346a45.33336 45.33336 0 0 0 27.86621 24.54785l26.64746 8.24512a19.96117 19.96117 0 0 0 5.90527.89746 19.8296 19.8296 0 0 0 17.25-29.49707l-13.61035-24.34862a45.33615 45.33615 0 0 0 -29.80761-22.14746l-7.02051-1.5476-17.77294-14.3899a166.88429 166.88429 0 0 0 23.72557-78.33984h22.32276l6.43066 3.21484a45.32072 45.32072 0 0 0 37.10254 1.543l25.89847-10.3594a19.81532 19.81532 0 0 0 0-36.79688l-25.89746-10.35937a45.32527 45.32527 0 0 0 -37.10449 1.543l-6.42972 3.21481h-21.82276a112.14464 112.14464 0 0 1 111.71143-104h32v-16zm-147.752 70.80957-4.08789.60059a29.48367 29.48367 0 0 1 -13.42774-1.15528 29.18987 29.18987 0 0 1 -9.69043-5.39453l-21.36616-17.92969v-.001a3.8158 3.8158 0 0 1 2.21289-6.73145l27.83985-1.751q.93163-.05861 1.86132-.0586a29.16948 29.16948 0 0 1 9.13965 1.46778 29.46868 29.46868 0 0 1 11.49121 7.0371l2.9336 2.91016zm-21.7939 127.80762-4.08789.60156a29.32639 29.32639 0 0 1 -23.11816-6.5498l-21.36621-17.92969a3.81616 3.81616 0 0 1 2.21386-6.73242l27.83692-1.752a29.325 29.325 0 0 1 22.49414 8.44629l2.93457 2.91113zm-205.94238 190.77832a29.31872 29.31872 0 0 1 18.63769 15.16406l12.52539 24.92285a3.816 3.816 0 0 1 -4.69726 5.30567l-26.25781-9.40918a29.1853 29.1853 0 0 1 -9.54395-5.64649 29.482 29.482 0 0 1 -7.76953-11.01269l-1.543-3.834 14.6553-16.55663zm-17.99902-9.38351-10.6047 11.98019-11.54716-10.22144a112.57949 112.57949 0 0 1 9.34816-13.09228zm11.57812-86.553-3.14453-2.68066a29.33068 29.33068 0 0 1 -10.29785-21.709l-.582-27.88672a3.81663 3.81663 0 0 1 6.52441-2.76856l19.65332 19.793a29.32439 29.32439 0 0 1 8.459 22.48926l-.25781 4.124zm14.97144 27.45435-5.90772-13.91968 14.72876-6.25122 6.46045 15.22217a126.91216 126.91216 0 0 0 -15.28149 4.94871zm86.93774 7.08665c5.39673 0 10.73193-.26636 16-.76636v16.76636h-16zm21.90234 59.70312-10.35934 25.89844a3.81605 3.81605 0 0 1 -7.08594 0l-10.35937-25.89941a29.323 29.323 0 0 1 .998-24.00488l1.84865-3.69727h22.11132l1.84864 3.69629a29.32758 29.32758 0 0 1 .998 24.00683zm17.15137-113.60351-3.30566-2.47949a29.318 29.318 0 0 1 -11.62793-21.02735l-2.31543-27.79589a3.816 3.816 0 0 1 6.33789-3.16895l20.84668 18.53125a29.32816 29.32816 0 0 1 9.84179 21.9209v4.13281zm17.0061 27.18457-7.1184-14.24 14.31152-7.15454 7.343 14.68725a151.334 151.334 0 0 1 -14.53612 6.70729zm105.31619-24.27148 4.03613.88964a29.32525 29.32525 0 0 1 19.28613 14.33008l13.60938 24.34766a3.81619 3.81619 0 0 1 -4.459 5.50781l-26.64551-8.24512a29.32039 29.32039 0 0 1 -18.03124-15.88183l-1.71-3.7627zm-14.3584-7.69336-10.0674 12.43554-11.93067-9.65967q5.34228-5.95166 10.11328-12.39819zm-2.3506-62.66993-18.05859-5.93774 4.99756-15.199 17.17724 5.6477a150.5863 150.5863 0 0 1 -4.11621 15.48904zm55.333-73.70507 3.69629-1.84864a29.32758 29.32758 0 0 1 24.00683-.998l25.89844 10.3593a3.81605 3.81605 0 0 1 0 7.08594l-25.89941 10.35937a29.323 29.323 0 0 1 -24.00488-.998l-3.69727-1.84865zm-16 3.05566v16h-16v-16zm-21.60938-58.49658-13.98828-4.59961 4.99756-15.19995 16.33155 5.36963a127.63441 127.63441 0 0 0 -7.34083 14.42993z"/></svg>