<svg id="Capa_1" enable-background="new 0 0 512 512" height="512" viewBox="0 0 512 512" width="512" xmlns="http://www.w3.org/2000/svg"><g><g><g><path d="m405.1 371.967c0-36.598-29.669-66.267-66.267-66.267h-165.666c-36.598 0-66.267 29.669-66.267 66.267v45.249h298.2z" fill="#8efcb4"/><path d="m338.833 305.7h-23c36.598 0 66.267 29.669 66.267 66.267v45.249h23v-45.249c0-36.598-29.669-66.267-66.267-66.267z" fill="#7bd9c2"/><path d="m222.867 267.449v38.251c0 18.299 14.834 33.133 33.133 33.133s33.133-14.834 33.133-33.133v-38.251z" fill="#edbc98"/><path d="m266.023 267.449v38.251c0 14.234-8.978 26.368-21.578 31.059 3.598 1.339 7.49 2.074 11.555 2.074 18.299 0 33.133-14.834 33.133-33.133v-38.251z" fill="#d9997c"/><path d="m144.175 90.333h-53.842c-9.149 0-16.567 7.417-16.567 16.567s7.417 16.567 16.567 16.567h53.842z" fill="#1c3173"/><path d="m117.033 90.333h27.142v33.133h-27.142z" fill="#162664"/><path d="m140.033 114.9v-24.567c0-45.748 37.086-82.833 82.833-82.833h66.267c45.748 0 82.833 37.086 82.833 82.833v24.567z" fill="#355b90"/><path d="m289.133 7.499h-23c45.748 0 82.833 37.086 82.833 82.834v24.566h23v-24.566c.001-45.748-37.085-82.834-82.833-82.834z" fill="#2b4983"/><path d="m372.533 106.9c8.837 0 16 7.163 16 16v67.4c0 8.837-7.163 16-16 16h-233.066c-8.837 0-16-7.163-16-16v-67.4c0-8.837 7.163-16 16-16z" fill="#e9f5fc"/><path d="m372.533 106.899h-23.1c8.836 0 16 7.164 16 16v67.4c0 8.836-7.164 16-16 16h23.1c8.837 0 16-7.164 16-16v-67.4c0-8.836-7.163-16-16-16z" fill="#c5e0fa"/><path d="m173.167 106.9v99.4c0 45.747 37.086 82.833 82.833 82.833 3.386 0 6.724-.203 10.004-.598l22.143-6.301c29.248-12.785 49.686-41.973 49.686-75.935v-99.4h-164.666z" fill="#edbc98"/><path d="m315.833 106.899v99.4c0 41.843-31.032 76.42-71.333 82.021 3.76.522 7.596.812 11.5.812 45.748 0 82.833-37.085 82.833-82.833v-99.4z" fill="#d9997c"/><path d="m338.833 123.466h-165.666v-33.133c0-27.449 22.252-49.7 49.7-49.7h66.267c27.449 0 49.7 22.251 49.7 49.7v33.133z" fill="#7fe0fc"/><path d="m289.133 40.633h-23.021c27.449 0 49.7 22.251 49.7 49.7v33.133h23.021v-33.133c0-27.449-22.251-49.7-49.7-49.7z" fill="#6cbef2"/><path d="m272.567 106.9c0-9.149-7.417-16.567-16.567-16.567s-16.567 7.417-16.567 16.567v16.567h33.133v-16.567z" fill="#edbc98"/><path d="m438.233 410.1v-21.567c0-9.15-7.417-16.567-16.567-16.567h-33.133c-9.15 0-16.567 7.417-16.567 16.567v21.567z" fill="#edbc98"/><path d="m421.667 371.967h-23c9.15 0 16.567 7.417 16.567 16.566v21.567h23v-21.567c-.001-9.149-7.418-16.566-16.567-16.566z" fill="#d9997c"/><g><g><path d="m329.833 189.733h-42.121c-4.394 0-8.607-1.745-11.714-4.852l-8.283-8.283c-6.47-6.47-16.959-6.47-23.429 0l-8.283 8.283c-3.107 3.107-7.321 4.852-11.714 4.852h-43.121c-4.418 0-8-3.582-8-8v-58.267h164.667v58.267c-.002 4.418-3.583 8-8.002 8z" fill="#355b90"/></g></g><path d="m315.833 123.466v58.267c0 4.419-3.582 8-8 8h23c4.418 0 8-3.581 8-8v-58.267z" fill="#2b4983"/><path d="m140.033 410.1v-21.567c0-9.15-7.417-16.567-16.567-16.567h-33.133c-9.149 0-16.567 7.417-16.567 16.567v21.567z" fill="#edbc98"/><path d="m123.467 371.967h-23c9.15 0 16.567 7.417 16.567 16.566v21.567h23v-21.567c-.001-9.149-7.418-16.566-16.567-16.566z" fill="#d9997c"/><g><g><path d="m471.367 479.65v-57.983c0-9.15-7.417-16.567-16.567-16.567h-397.6c-9.15 0-16.567 7.417-16.567 16.567v57.983z" fill="#e9f5fc"/><path d="m454.8 405.1h-23c9.15 0 16.567 7.417 16.567 16.566v57.983h23v-57.983c0-9.149-7.418-16.566-16.567-16.566z" fill="#c5e0fa"/></g><path d="m496.217 471.366c4.575 0 8.283 3.708 8.283 8.283v16.567c0 4.575-3.709 8.283-8.283 8.283h-480.434c-4.575 0-8.283-3.709-8.283-8.283v-16.566c0-4.575 3.708-8.283 8.283-8.283h480.434z" fill="#355b90"/><path d="m156.6 504.5h-33.133v-33.7c0-8.837 7.163-16 16-16h1.133c8.836 0 16 7.163 16 16z" fill="#7fe0fc"/><path d="m496.217 471.366h-23c4.575 0 8.283 3.709 8.283 8.283v16.567c0 4.575-3.709 8.283-8.283 8.283h23c4.575 0 8.283-3.709 8.283-8.283v-16.567c0-4.574-3.709-8.283-8.283-8.283z" fill="#2b4983"/><path d="m140.6 454.8h-1.133c-4.215 0-8.038 1.642-10.895 4.306 3.133 2.921 5.104 7.072 5.104 11.694v33.7h22.924v-33.7c0-8.837-7.163-16-16-16z" fill="#6cbef2"/></g></g></g><g><path d="m49.7 256c0 13.271 10.796 24.066 24.066 24.066s24.068-10.795 24.068-24.066c0-13.27-10.796-24.066-24.067-24.066s-24.067 10.796-24.067 24.066zm24.067-9.066c4.999 0 9.067 4.067 9.067 9.066s-4.067 9.066-9.067 9.066c-4.999 0-9.066-4.067-9.066-9.066s4.067-9.066 9.066-9.066z"/><path d="m438.233 280.066c13.271 0 24.066-10.796 24.066-24.066s-10.796-24.066-24.066-24.066-24.066 10.796-24.066 24.066c0 13.271 10.796 24.066 24.066 24.066zm0-33.132c4.999 0 9.066 4.067 9.066 9.066s-4.067 9.066-9.066 9.066c-5 0-9.067-4.067-9.067-9.066s4.068-9.066 9.067-9.066z"/><path d="m24.067 64.7h9.066v9.066c0 4.143 3.358 7.5 7.5 7.5s7.5-3.357 7.5-7.5v-9.066h9.067c4.142 0 7.5-3.357 7.5-7.5s-3.358-7.5-7.5-7.5h-9.067v-9.067c0-4.143-3.358-7.5-7.5-7.5s-7.5 3.357-7.5 7.5v9.067h-9.066c-4.142 0-7.5 3.357-7.5 7.5s3.358 7.5 7.5 7.5z"/><path d="m454.8 64.7h9.067v9.066c0 4.143 3.358 7.5 7.5 7.5s7.5-3.357 7.5-7.5v-9.066h9.066c4.142 0 7.5-3.357 7.5-7.5s-3.358-7.5-7.5-7.5h-9.066v-9.067c0-4.143-3.358-7.5-7.5-7.5s-7.5 3.357-7.5 7.5v9.067h-9.067c-4.142 0-7.5 3.357-7.5 7.5s3.358 7.5 7.5 7.5z"/><path d="m284.015 230.769c2.075-3.585.851-8.174-2.734-10.248-3.583-2.073-8.173-.852-10.248 2.734-3.098 5.354-8.858 8.679-15.032 8.679-6.175 0-11.936-3.326-15.033-8.68-2.075-3.585-6.663-4.809-10.248-2.736-3.585 2.075-4.81 6.663-2.736 10.248 5.77 9.973 16.505 16.168 28.017 16.168 11.509 0 22.244-6.195 28.014-16.165z"/><path d="m496.217 463.867h-17.35v-42.2c0-13.27-10.796-24.067-24.067-24.067h-9.066v-9.066c0-13.271-10.796-24.066-24.067-24.066h-9.446c-3.77-37.165-35.244-66.267-73.387-66.267h-42.2v-11.238c27.343-13.83 46.743-41.156 49.386-73.163h26.513c12.958 0 23.5-10.542 23.5-23.5v-67.4c0-10.545-6.982-19.49-16.566-22.455v-10.112c0-49.81-40.524-90.333-90.334-90.333h-66.267c-17.229 0-33.985 4.87-48.456 14.083-3.494 2.225-4.523 6.861-2.299 10.354 2.225 3.495 6.86 4.523 10.355 2.3 12.06-7.678 26.031-11.737 40.401-11.737h66.267c41.539 0 75.333 33.794 75.333 75.333v9.067h-18.133v-9.067c0-31.54-25.66-57.2-57.2-57.2h-66.267c-31.54 0-57.2 25.66-57.2 57.2v9.067h-18.133v-9.067c0-16.382 5.166-31.956 14.94-45.038 2.479-3.318 1.799-8.018-1.52-10.498-3.319-2.478-8.018-1.798-10.497 1.519-10.223 13.684-16.241 29.636-17.616 46.517h-42.507c-13.271 0-24.067 10.797-24.067 24.067s10.796 24.066 24.067 24.066h25.633v59.334c0 12.958 10.542 23.5 23.5 23.5h26.514c2.643 32.007 22.044 59.333 49.386 73.163v11.237h-42.2c-38.143 0-69.617 29.101-73.387 66.267h-9.446c-13.271 0-24.067 10.796-24.067 24.066v9.066h-9.067c-13.271 0-24.067 10.797-24.067 24.067v42.2h-17.35c-8.702.001-15.783 7.081-15.783 15.784v16.566c0 8.704 7.081 15.784 15.783 15.784h42.984c4.142 0 7.5-3.357 7.5-7.5s-3.358-7.5-7.5-7.5h-42.984c-.432 0-.783-.352-.783-.783v-16.567c0-.432.352-.783.783-.783h100.184v18.133h-27.2c-4.142 0-7.5 3.357-7.5 7.5s3.358 7.5 7.5 7.5h407.45c8.703 0 15.783-7.08 15.783-15.783v-16.567c0-8.703-7.08-15.783-15.783-15.783zm-32.35-42.2v42.2h-134.1v-51.267h125.033c4.999 0 9.067 4.067 9.067 9.067zm-266.634 42.2v-51.267h117.533v51.268h-117.533zm233.5-75.334v9.066h-51.267v-9.066c0-4.999 4.067-9.066 9.066-9.066h33.133c5.001 0 9.068 4.067 9.068 9.066zm-250.066-257.566h150.667v51.267h-43.622c-2.422 0-4.699-.943-6.411-2.656l-8.283-8.283c-4.692-4.691-10.855-7.037-17.018-7.037s-12.326 2.346-17.018 7.037l-8.284 8.284c-1.712 1.712-3.989 2.655-6.411 2.655h-43.622v-51.267zm84.4-15h-18.134v-9.067c0-5 4.067-9.067 9.067-9.067s9.067 4.067 9.067 9.067zm115.966 74.333c0 4.686-3.813 8.5-8.5 8.5h-26.2v-75.333-9.067h26.2c4.687 0 8.5 3.813 8.5 8.5zm-200.366-99.967c0-23.27 18.931-42.2 42.2-42.2h66.267c23.269 0 42.2 18.931 42.2 42.2v25.634h-51.267v-9.067c0-13.271-10.796-24.067-24.067-24.067-13.27 0-24.067 10.797-24.067 24.067v9.066h-51.267v-25.633zm-99.4 16.567c0-5 4.067-9.067 9.067-9.067h42.2v2.612c-7.391 2.287-13.234 8.13-15.521 15.521h-26.679c-5 .001-9.067-4.067-9.067-9.066zm49.7 83.4v-67.4c0-4.687 3.813-8.5 8.5-8.5h26.2v9.066 75.334h-26.2c-4.687 0-8.5-3.814-8.5-8.5zm49.7 16v-9.066h43.622c6.429 0 12.473-2.504 17.018-7.049l8.283-8.283c1.712-1.713 3.989-2.656 6.411-2.656s4.699.943 6.411 2.656l8.283 8.282c4.546 4.546 10.589 7.05 17.018 7.05h43.622v9.066c0 41.539-33.794 75.333-75.333 75.333s-75.335-33.794-75.335-75.333zm75.333 90.333c8.901 0 17.503-1.3 25.633-3.71v12.777c0 14.134-11.499 25.633-25.633 25.633s-25.633-11.499-25.633-25.633v-12.778c8.13 2.41 16.732 3.711 25.633 3.711zm-82.833 16.567h42.906c3.53 18.833 20.085 33.133 39.928 33.133s36.397-14.3 39.928-33.133h42.906c29.862 0 54.575 22.394 58.272 51.267h-8.572c-13.27 0-24.066 10.796-24.066 24.066v9.066h-100.969v-.783c0-4.143-3.358-7.5-7.5-7.5s-7.5 3.357-7.5 7.5v.783h-18.133v-.783c0-4.143-3.358-7.5-7.5-7.5s-7.5 3.357-7.5 7.5v.783h-67.833v-9.066c0-13.271-10.796-24.066-24.066-24.066h-8.572c3.696-28.873 28.409-51.267 58.271-51.267zm-91.9 75.333c0-4.999 4.067-9.066 9.067-9.066h33.133c4.999 0 9.066 4.067 9.066 9.066v9.066h-51.266zm-33.134 33.134c0-5 4.067-9.067 9.067-9.067h125.033v51.268h-19.178c-2.965-9.584-11.91-16.567-22.455-16.567h-1.133c-10.546 0-19.49 6.983-22.455 16.567h-68.879zm82.834 49.133c0-4.686 3.813-8.5 8.5-8.5h1.133c4.687 0 8.5 3.814 8.5 8.5v26.2h-18.133zm366.033 25.417c0 .432-.352.783-.783.783h-332.117v-18.133h332.117c.432 0 .783.352.783.783z"/></g></g></svg>